<?xml version="1.0" encoding="iso-8859-1"?>
<!-- Generator: Adobe Illustrator 17.1.0, SVG Export Plug-In . SVG Version: 6.00 Build 0)  -->
<!DOCTYPE svg PUBLIC "-//W3C//DTD SVG 1.1//EN" "http://www.w3.org/Graphics/SVG/1.1/DTD/svg11.dtd">
<svg version="1.1" id="Capa_1" xmlns="http://www.w3.org/2000/svg" xmlns:xlink="http://www.w3.org/1999/xlink" x="0px" y="0px"
	 viewBox="0 0 311.185 311.185" style="enable-background:new 0 0 311.185 311.185;" xml:space="preserve">
<path d="M298.5,288.279c0,4.418-3.582,8-8,8H8c-4.418,0-8-3.582-8-8s3.582-8,8-8h282.5C294.918,280.279,298.5,283.861,298.5,288.279
	z M141.13,156.953c1.542,1.439,3.501,2.151,5.457,2.151c2.14,0,4.275-0.854,5.851-2.542c3.014-3.23,2.839-8.292-0.391-11.307
	c-13.715-12.8-10.781-38.815,1.006-53.524c15.993-19.955,19.513-55.531-1.007-74.675c-3.229-3.015-8.293-2.839-11.307,0.393
	c-3.014,3.23-2.838,8.293,0.393,11.307c12.32,11.493,12.046,37.235-0.564,52.97c-8.288,10.343-13.242,24.204-13.592,38.03
	C126.591,134.866,131.619,148.077,141.13,156.953z M311.185,140.334v15.347c0,22.001-17.897,39.899-39.897,39.899h-17.858
	c-12.123,33.706-44.416,57.878-82.245,57.878h-43.867c-48.174,0-87.366-39.191-87.366-87.364V86.729c0-4.418,3.582-8,8-8h51.315
	c10.416-15.835,9.95-39.184-1.614-49.974c-3.23-3.014-3.405-8.076-0.391-11.307s8.077-3.406,11.307-0.391
	c20.515,19.143,16.996,54.718,1.007,74.673c-11.791,14.711-14.726,40.726-1.007,53.524c3.23,3.015,3.406,8.076,0.392,11.308
	c-3.014,3.23-8.077,3.405-11.307,0.392c-9.514-8.877-14.542-22.087-14.159-37.198c0.219-8.615,2.225-17.244,5.712-25.027H55.952
	v71.365c0,39.351,32.015,71.364,71.366,71.364h43.867c39.351,0,71.366-32.014,71.366-71.364V94.729h-60.151c-4.418,0-8-3.582-8-8
	s3.582-8,8-8h68.151c4.418,0,8,3.582,8,8v13.706h12.738C293.287,100.435,311.185,118.333,311.185,140.334z M295.185,140.334
	c0-13.178-10.72-23.899-23.897-23.899H258.55v63.146h12.738c13.177,0,23.897-10.722,23.897-23.899V140.334z"/>
<g>
</g>
<g>
</g>
<g>
</g>
<g>
</g>
<g>
</g>
<g>
</g>
<g>
</g>
<g>
</g>
<g>
</g>
<g>
</g>
<g>
</g>
<g>
</g>
<g>
</g>
<g>
</g>
<g>
</g>
</svg>
