<svg height="512" viewBox="0 0 60 52" width="512" xmlns="http://www.w3.org/2000/svg"><g id="Page-1" fill="none" fill-rule="evenodd"><g id="005---Cafe-Wifi" fill="rgb(0,0,0)" fill-rule="nonzero" transform="translate(-1)"><path id="Shape" d="m8.163 45.442c4.248 4.351 10.249 6.558 17.837 6.558s13.589-2.207 17.837-6.558c.9075172-.9388464 1.7250889-1.9606437 2.442-3.052.8534601-.4419747 1.761201-.7701062 2.7-.976.372-.087.769-.172 1.183-.262 3.908-.841 9.814-2.113 10.611-8.018.433-3.206-.788-4.955-1.888-5.858-2.1-1.726-5.259-1.747-7.924-1.117.046-1.093.052-2.105.031-2.986 0-.058.01-.115.01-.173 0-3.884-4.16-7.268-11.413-9.283-.5297059-.141057-1.0742368.170623-1.2208792.6988099-.1466425.5281869.1592702 1.0759785.6858792 1.2281901 6.134 1.705 9.946 4.524 9.946 7.356 0 4.346-9.242 9-23 9s-23-4.654-23-9c0-2.823 3.813-5.642 9.949-7.357.3494152-.091442.622368-.3641973.714063-.7135462s-.0121191-.7209956-.2715847-.972253-.6342564-.3430749-.9804783-.2402008c-7.252 2.027-11.411 5.41-11.411 9.283 0 .06.008.118.01.177-.129 5.462.633 15.585 7.153 22.265zm49.451-16.62c1.028.844 1.423 2.2 1.175 4.044-.609 4.513-5.289 5.521-9.05 6.331-.426.092-.834.18-1.215.269-.232.054-.454.116-.677.178 1.6609121-3.5855628 2.6674131-7.4391883 2.972-11.379 2.727-.785 5.399-.587 6.795.557zm-31.614 5.178c10.347 0 19.034-2.634 22.877-6.493-.394 5.178-1.877 11.837-6.471 16.538-3.857 3.955-9.377 5.955-16.406 5.955s-12.549-2-16.406-5.955c-4.576-4.689-6.069-11.326-6.469-16.536 3.845 3.858 12.53 6.491 22.875 6.491z"/><path id="Shape" d="m6.318 34.2c.85425898 3.1580765 2.47053275 6.0582354 4.707 8.446 1.3137644 1.3385483 2.8511915 2.4373873 4.543 3.247.4938578.2219565 1.0746654.0105414 1.3102843-.4769459.2356189-.4874874.0404548-1.0739555-.4402843-1.3230541-1.4822185-.708542-2.8294253-1.6703008-3.981-2.842-2.0083914-2.1554696-3.45769654-4.7704679-4.221-7.616-.16257036-.5216247-.71370991-.8162055-1.23774015-.6615647-.52403024.1546409-.82693558.7012495-.68025985 1.2275647z"/><path id="Shape" d="m11.867 7.867c3.7442484-3.7559386 8.8295605-5.86698843 14.133-5.86698843s10.3887516 2.11104983 14.133 5.86698843c.2510745.25995658.6228779.3642126.9725073.27269716.3496295-.09151544.6226744-.3645604.7141899-.71418984.0915154-.34962943-.0127406-.72143285-.2726972-.97250732-4.1191744-4.13112482-9.7131513-6.45297381-15.547-6.45297381s-11.4278256 2.32184899-15.547 6.45297381c-.3789722.39237889-.3735524 1.01608478.0121814 1.40181858.3857338.38573379 1.0094397.39115363 1.4018186.01218142z"/><path id="Shape" d="m26 6c-4.2444574-.00827961-8.3158791 1.68157463-11.307 4.693-.3789722.3923789-.3735524 1.0160848.0121814 1.4018186s1.0094397.3911536 1.4018186.0121814c2.6209397-2.62914492 6.1806251-4.10687487 9.893-4.10687487s7.2720603 1.47772995 9.893 4.10687487c.3923789.3789722 1.0160848.3735524 1.4018186-.0121814s.3911536-1.0094397.0121814-1.4018186c-2.9911209-3.01142537-7.0625426-4.70127961-11.307-4.693z"/><path id="Shape" d="m20.347 16.347c1.4974999-1.5025975 3.5316077-2.3471779 5.653-2.3471779s4.1555001.8445804 5.653 2.3471779c.3923789.3789722 1.0160848.3735524 1.4018186-.0121814s.3911536-1.0094397.0121814-1.4018186c-1.8693671-1.8823264-4.4141419-2.9384782-7.067-2.933-.183 0-.354 0-.525.012-.022 0-.041.014-.063.017-2.4434584.1343424-4.75101 1.1672024-6.479 2.9-.3789722.3923789-.3735524 1.0160848.0121814 1.4018186s1.0094397.3911536 1.4018186.0121814z"/><path id="Shape" d="m30 22c0-2.209139-1.790861-4-4-4s-4 1.790861-4 4 1.790861 4 4 4 4-1.790861 4-4zm-4-2c1.1045695 0 2 .8954305 2 2s-.8954305 2-2 2-2-.8954305-2-2 .8954305-2 2-2z"/></g></g></svg>